<?xml version="1.0" standalone="no"?>
<!DOCTYPE svg PUBLIC "-//W3C//DTD SVG 20010904//EN"
 "http://www.w3.org/TR/2001/REC-SVG-20010904/DTD/svg10.dtd">
<svg version="1.0" xmlns="http://www.w3.org/2000/svg"
 width="260.000000pt" height="260.000000pt" viewBox="0 0 260.000000 260.000000"
 preserveAspectRatio="xMidYMid meet">
<metadata>
Created by potrace 1.14, written by Peter Selinger 2001-2017
</metadata>
<g transform="translate(0.000000,260.000000) scale(0.100000,-0.100000)"
fill="#000000" stroke="none">
<path d="M1130 1882 l0 -67 -117 -23 c-265 -51 -426 -178 -487 -381 -20 -68
-21 -255 -2 -327 53 -201 235 -348 494 -397 l112 -22 0 -72 0 -73 175 0 175 0
0 73 0 74 107 21 c355 70 547 315 503 643 -26 200 -142 339 -351 422 -53 21
-210 57 -250 57 -5 0 -9 32 -9 70 l0 70 -175 0 -175 0 0 -68z m0 -642 c0 -205
-4 -330 -10 -330 -32 0 -125 47 -160 81 -61 59 -82 115 -87 234 -6 124 16 195
82 260 37 38 125 83 163 84 9 1 12 -71 12 -329z m454 292 c60 -33 100 -81 127
-152 17 -46 20 -72 17 -155 -7 -164 -59 -248 -182 -294 -31 -11 -59 -21 -61
-21 -3 0 -5 149 -5 330 l0 330 28 -6 c15 -4 49 -18 76 -32z"/>
</g>
</svg>
